{"title":"The Possession (2012) BRrip 720p x264 Dual Audio [Eng DD 5.1-Hin","uid":11121858,"size":1259516700,"categoryP":"video","categoryS":"hd___movies","magnet":"?xt=urn:btih:ce65468f3c305a56ffcb4130dd20ab2805f372c7&amp;dn=The+Possession+%282012%29+BRrip+720p+x264+Dual+Audio+%5BEng+DD+5.1-Hin&amp;tr=udp%3A%2F%2Ftracker.openbittorrent.com%3A80&amp;tr=udp%3A%2F%2Fopen.demonii.com%3A1337&amp;tr=udp%3A%2F%2Ftracker.coppersurfer.tk%3A6969&amp;tr=udp%3A%2F%2Fexodus.desync.com%3A6969","seeders":0,"leechers":1,"uploader":"Xdesiars","files":5,"time":1411925415,"description":"Format                                   : Matroska\nFormat version                           : Version 2\nFile size                                : 1.16 GiB\nDuration                                 : 1h 32mn\nOverall bit rate                         : 1 806 Kbps\nMovie name                               : The Possession (2012) by XdesiArsenal [ExD-XMR]\nEncoded date                             : UTC 2014-09-28 14:43:25\nWriting application                      : mkvmerge v5.0.1 ('Es ist Sommer') built on Nov 23 2011 20:48:57\nWriting library                          : libebml v1.2.2 + libmatroska v1.3.0\n\nVideo\nID                                       : 1\nFormat                                   : AVC\nFormat/Info                              : Advanced Video Codec\nFormat profile                           : &lt;a class=&quot;__cf_email__&quot; href=&quot;/cdn-cgi/l/email-protection&quot; data-cfemail=&quot;c984a8a0a78985fae7f8&quot;&gt;[email&amp;#160;protected]&lt;/a&gt;&lt;script data-cfhash='f9e31' type=&quot;text/javascript&quot;&gt;\n/* &lt;![CDATA[ */!function(){try{var t=&quot;currentScript&quot;in document?document.currentScript:function(){for(var t=document.getElementsByTagName(&quot;script&quot;),e=t.length;e--;)if(t[e].getAttribute(&quot;data-cfhash&quot;))return t[e]}();if(t&amp;&amp;t.previousSibling){var e,r,n,i,c=t.previousSibling,a=c.getAttribute(&quot;data-cfemail&quot;);if(a){for(e=&quot;&quot;,r=parseInt(a.substr(0,2),16),n=2;a.length-n;n+=2)i=parseInt(a.substr(n,2),16)^r,e+=String.fromCharCode(i);e=document.createTextNode(e),c.parentNode.replaceChild(e,c)}t.parentNode.removeChild(t);}}catch(u){}}()/* ]]&gt; */&lt;/script&gt;\nFormat settings, CABAC                   : Yes\nFormat settings, ReFrames                : 4 frames\nMuxing mode                              : Header stripping\nCodec ID                                 : V_MPEG4/ISO/AVC\nDuration                                 : 1h 32mn\nBit rate                                 : 1 130 Kbps\nWidth                                    : 1 280 pixels\nHeight                                   : 544 pixels\nDisplay aspect ratio                     : 2.40:1\nFrame rate mode                          : Constant\nFrame rate                               : 23.976 fps\nColor space                              : YUV\nChroma subsampling                       : 4:2:0\nBit depth                                : 8 bits\nScan type                                : Progressive\nBits/(Pixel*Frame)                       : 0.068\nStream size                              : 745 MiB (63%)\nTitle                                    : The Possession (2012) by XdesiArsenal [ExD-XMR]\nWriting library                          : x264 core 112\nLanguage                                 : English\nDefault                                  : Yes\nForced                                   : No\nColor primaries                          : BT.709\nTransfer characteristics                 : BT.709\nMatrix coefficients                      : BT.709\n\nAudio #1\nID                                       : 2\nFormat                                   : AC-3\nFormat/Info                              : Audio Coding 3\nMode extension                           : CM (complete main)\nFormat settings, Endianness              : Big\nMuxing mode                              : Header stripping\nCodec ID                                 : A_AC3\nDuration                                 : 1h 32mn\nBit rate mode                            : Constant\nBit rate                                 : 192 Kbps\nChannel(s)                               : 6 channels\nChannel positions                        : Front: L C R, Side: L R, LFE\nSampling rate                            : 48.0 KHz\nBit depth                                : 16 bits\nCompression mode                         : Lossy\nStream size                              : 127 MiB (11%)\nTitle                                    : XdesiArsenal\nLanguage                                 : English\nDefault                                  : Yes\nForced                                   : No\n\nAudio #2\nID                                       : 3\nFormat                                   : AC-3\nFormat/Info                              : Audio Coding 3\nMode extension                           : CM (complete main)\nFormat settings, Endianness              : Big\nMuxing mode                              : Header stripping\nCodec ID                                 : A_AC3\nDuration                                 : 1h 32mn\nBit rate mode                            : Constant\nBit rate                                 : 448 Kbps\nChannel(s)                               : 6 channels\nChannel positions                        : Front: L C R, Side: L R, LFE\nSampling rate                            : 48.0 KHz\nBit depth                                : 16 bits\nCompression mode                         : Lossy\nDelay relative to video                  : 1s 800ms\nStream size                              : 296 MiB (25%)\nTitle                                    : XdesiArsenal\nLanguage                                 : Hindi\nDefault                                  : No\nForced                                   : No\n\nMenu\n00:00:00.000                             : en:Chapter 1\n00:03:36.550                             : en:Chapter 2\n00:08:00.313                             : en:Chapter 3\n00:11:01.744                             : en:Chapter 4\n00:13:24.721                             : en:Chapter 5\n00:16:57.016                             : en:Chapter 6\n00:20:51.250                             : en:Chapter 7\n00:25:05.129                             : en:Chapter 8\n00:30:09.975                             : en:Chapter 9\n00:35:03.560                             : en:Chapter 10\n00:39:06.177                             : en:Chapter 11\n00:43:04.540                             : en:Chapter 12\n00:46:16.816                             : en:Chapter 13\n00:50:02.458                             : en:Chapter 14\n00:52:48.707                             : en:Chapter 15\n00:55:26.573                             : en:Chapter 16\n00:57:09.927                             : en:Chapter 17\n01:01:59.341                             : en:Chapter 18\n01:05:47.569                             : en:Chapter 19\n01:08:22.098                             : en:Chapter 20\n01:12:05.404                             : en:Chapter 21\n01:17:08.749                             : en:Chapter 22\n01:24:01.912                             : en:Chapter 23\n01:26:42.239                             : en:Chapter 24\n","torrent":{"xt":"urn:btih:ce65468f3c305a56ffcb4130dd20ab2805f372c7","amp;dn":"The+Possession+%282012%29+BRrip+720p+x264+Dual+Audio+%5BEng+DD+5.1-Hin","amp;tr":["udp%3A%2F%2Ftracker.openbittorrent.com%3A80","udp%3A%2F%2Fopen.demonii.com%3A1337","udp%3A%2F%2Ftracker.coppersurfer.tk%3A6969","udp%3A%2F%2Fexodus.desync.com%3A6969"],"infoHash":"ce65468f3c305a56ffcb4130dd20ab2805f372c7","infoHashBuffer":{"type":"Buffer","data":[206,101,70,143,60,48,90,86,255,203,65,48,221,32,171,40,5,243,114,199]},"announce":[],"urlList":[]}}